<svg xmlns="http://www.w3.org/2000/svg" width="60" height="60" viewBox="0 0 60 60" fill="none">
  <mask id="path-1-inside-1_751_1719" fill="#ffffff">
    <path fill-rule="evenodd" clipRule="evenodd"
      d="M60 30L60 24.1071L33.75 24.1071L33.75 36.4285L42.9605 36.4285C40.5937 41.1913 35.6789 44.4643 29.9997 44.4643C22.0113 44.4643 15.5354 37.9885 15.5354 30.0001C15.5354 22.0116 22.0113 15.5358 29.9997 15.5358C32.1513 15.5358 34.1932 16.0056 36.0284 16.8482L40.6013 1.92687C37.3051 0.681506 33.7321 -2.94896e-06 30 -2.62268e-06C13.4315 -1.17422e-06 1.17422e-06 13.4315 2.62268e-06 30C4.07115e-06 46.5685 13.4315 60 30 60C46.5685 60 60 46.5685 60 30Z" />
  </mask>
  <path
    d="M60 24.1071L63 24.1071L63 21.1071L60 21.1071L60 24.1071ZM60 30L57 30L60 30ZM33.75 24.1071L33.75 21.1071L30.75 21.1071L30.75 24.1071L33.75 24.1071ZM33.75 36.4285L30.75 36.4285L30.75 39.4285L33.75 39.4285L33.75 36.4285ZM42.9605 36.4285L45.647 37.7636L47.8014 33.4285L42.9605 33.4285L42.9605 36.4285ZM36.0284 16.8482L34.7766 19.5745L37.8922 21.005L38.8967 17.7272L36.0284 16.8482ZM40.6013 1.92687L43.4696 2.80591L44.2942 0.115165L41.6616 -0.879506L40.6013 1.92687ZM57 24.1071L57 30L63 30L63 24.1071L57 24.1071ZM33.75 27.1071L60 27.1071L60 21.1071L33.75 21.1071L33.75 27.1071ZM36.75 36.4285L36.75 24.1071L30.75 24.1071L30.75 36.4285L36.75 36.4285ZM42.9605 33.4285L33.75 33.4285L33.75 39.4285L42.9605 39.4285L42.9605 33.4285ZM40.2739 35.0935C38.3944 38.8756 34.4966 41.4643 29.9997 41.4643L29.9997 47.4643C36.8612 47.4643 42.7929 43.5069 45.647 37.7636L40.2739 35.0935ZM29.9997 41.4643C23.6681 41.4643 18.5354 36.3316 18.5354 30L12.5354 30.0001C12.5354 39.6453 20.3544 47.4643 29.9997 47.4643L29.9997 41.4643ZM18.5354 30C18.5354 23.6685 23.6681 18.5358 29.9997 18.5358L29.9997 12.5358C20.3544 12.5358 12.5354 20.3548 12.5354 30.0001L18.5354 30ZM29.9997 18.5358C31.7106 18.5358 33.3262 18.9086 34.7766 19.5745L37.2802 14.1218C35.0602 13.1025 32.5921 12.5358 29.9997 12.5358L29.9997 18.5358ZM38.8967 17.7272L43.4696 2.80591L37.7329 1.04782L33.1601 15.9691L38.8967 17.7272ZM41.6616 -0.879506C38.0318 -2.25092 34.0999 -3 30 -3L30 3C33.3644 3 36.5784 3.61394 39.5409 4.73324L41.6616 -0.879506ZM30 -3C11.7746 -3 -3 11.7746 -3 30L3 30C3 15.0883 15.0883 3 30 3L30 -3ZM-3 30C-3 48.2254 11.7746 63 30 63L30 57C15.0883 57 3 44.9117 3 30L-3 30ZM30 63C48.2254 63 63 48.2254 63 30L57 30C57 44.9117 44.9117 57 30 57L30 63Z"
    fill="#E6E6E6" mask="url(#path-1-inside-1_751_1719)" />
</svg>