<svg xmlns="http://www.w3.org/2000/svg" width="26" height="26" viewBox="0 0 26 26" fill="none">
  <mask id="path-1-inside-1_273_552" fill="white">
    <path fill-rule="evenodd" clip-rule="evenodd"
      d="M26 13L26 15.5536L14.625 15.5536L14.625 10.2143L18.6163 10.2143C17.5907 8.15047 15.461 6.73214 13 6.73214C9.53836 6.73214 6.73214 9.53836 6.73214 13C6.73214 16.4616 9.53836 19.2679 13 19.2679C13.9323 19.2679 14.817 19.0643 15.6122 18.6992L17.5938 25.1651C16.1655 25.7047 14.6172 26 13 26C5.8203 26 5.08827e-07 20.1797 1.1365e-06 13C1.76417e-06 5.8203 5.8203 2.41618e-06 13 3.04384e-06C20.1797 3.67151e-06 26 5.8203 26 13Z" />
  </mask>
  <path
    d="M26 15.5536L27 15.5536L27 16.5536L26 16.5536L26 15.5536ZM14.625 15.5536L14.625 16.5536L13.625 16.5536L13.625 15.5536L14.625 15.5536ZM14.625 10.2143L13.625 10.2143L13.625 9.21429L14.625 9.21429L14.625 10.2143ZM18.6163 10.2143L19.5118 9.76926L20.23 11.2143L18.6163 11.2143L18.6163 10.2143ZM15.6122 18.6992L15.195 17.7904L16.2335 17.3137L16.5684 18.4062L15.6122 18.6992ZM17.5938 25.1651L18.5499 24.872L18.8248 25.769L17.9472 26.1005L17.5938 25.1651ZM25 15.5536L25 13L27 13L27 15.5536L25 15.5536ZM14.625 14.5536L26 14.5536L26 16.5536L14.625 16.5536L14.625 14.5536ZM15.625 10.2143L15.625 15.5536L13.625 15.5536L13.625 10.2143L15.625 10.2143ZM18.6163 11.2143L14.625 11.2143L14.625 9.21429L18.6163 9.21429L18.6163 11.2143ZM17.7208 10.6593C16.8576 8.92235 15.0669 7.73214 13 7.73214L13 5.73214C15.8551 5.73214 18.3238 7.37859 19.5118 9.76926L17.7208 10.6593ZM13 7.73214C10.0906 7.73214 7.73214 10.0906 7.73214 13L5.73214 13C5.73214 8.98607 8.98607 5.73214 13 5.73214L13 7.73214ZM7.73214 13C7.73214 15.9094 10.0906 18.2679 13 18.2679L13 20.2679C8.98607 20.2679 5.73214 17.0139 5.73214 13L7.73214 13ZM13 18.2679C13.7854 18.2679 14.5281 18.0966 15.195 17.7904L16.0295 19.608C15.106 20.032 14.0792 20.2679 13 20.2679L13 18.2679ZM16.5684 18.4062L18.5499 24.872L16.6377 25.4581L14.6561 18.9923L16.5684 18.4062ZM17.9472 26.1005C16.4077 26.6822 14.7398 27 13 27L13 25C14.4946 25 15.9233 24.7272 17.2404 24.2296L17.9472 26.1005ZM13 27C5.26801 27 -1 20.732 -0.999999 13L1 13C1 19.6274 6.37258 25 13 25L13 27ZM-0.999999 13C-0.999998 5.26801 5.26802 -0.999998 13 -0.999997L13 1C6.37258 1 1 6.37258 1 13L-0.999999 13ZM13 -0.999997C20.732 -0.999996 27 5.26802 27 13L25 13C25 6.37259 19.6274 1 13 1L13 -0.999997Z"
    fill="#9A9B9F" mask="url(#path-1-inside-1_273_552)" />
</svg>