<svg xmlns="http://www.w3.org/2000/svg" width="20" height="20" viewBox="0 0 20 20" fill="none">
  <mask id="mask0_316_1567" style="mask-type:alpha" maskUnits="userSpaceOnUse" x="0" y="0" width="20" height="20">
    <rect width="20" height="20" fill="#D9D9D9"/>
  </mask>
  <g mask="url(#mask0_316_1567)">
    <path d="M2.27091 17.5C1.95147 17.5 1.71536 17.3611 1.56258 17.0833C1.4098 16.8056 1.4098 16.5278 1.56258 16.25L9.27091 2.91667C9.42369 2.63889 9.66675 2.5 10.0001 2.5C10.3334 2.5 10.5765 2.63889 10.7292 2.91667L18.4376 16.25C18.5904 16.5278 18.5904 16.8056 18.4376 17.0833C18.2848 17.3611 18.0487 17.5 17.7292 17.5H2.27091ZM10.0001 8.33333C9.76397 8.33333 9.56619 8.41305 9.40675 8.5725C9.24675 8.7325 9.16675 8.93056 9.16675 9.16667V11.6667C9.16675 11.9028 9.24675 12.1006 9.40675 12.26C9.56619 12.42 9.76397 12.5 10.0001 12.5C10.2362 12.5 10.4342 12.42 10.5942 12.26C10.7537 12.1006 10.8334 11.9028 10.8334 11.6667V9.16667C10.8334 8.93056 10.7537 8.7325 10.5942 8.5725C10.4342 8.41305 10.2362 8.33333 10.0001 8.33333ZM10.0001 15C10.2362 15 10.4342 14.92 10.5942 14.76C10.7537 14.6006 10.8334 14.4028 10.8334 14.1667C10.8334 13.9306 10.7537 13.7328 10.5942 13.5733C10.4342 13.4133 10.2362 13.3333 10.0001 13.3333C9.76397 13.3333 9.56619 13.4133 9.40675 13.5733C9.24675 13.7328 9.16675 13.9306 9.16675 14.1667C9.16675 14.4028 9.24675 14.6006 9.40675 14.76C9.56619 14.92 9.76397 15 10.0001 15Z" fill="#FFC700"/>
  </g>
</svg>